<?xml version="1.0" encoding="utf-8"?>
<!-- Generator: Adobe Illustrator 24.0.1, SVG Export Plug-In . SVG Version: 6.00 Build 0)  -->
<svg version="1.1" id="Ebene_1" xmlns="http://www.w3.org/2000/svg" xmlns:xlink="http://www.w3.org/1999/xlink" x="0px" y="0px"
	 viewBox="0 0 374.13 371.83" style="enable-background:new 0 0 374.13 371.83;" xml:space="preserve">
<path style="fill:#9B1980;" d="M316.19,295.59c0,0-1.33-0.09-2.65,0.57c-1.33,0.66-1.89,0.1-2.46-0.84
	c-0.57-0.95-1.8-1.04-3.13-1.04c-1.33,0-2.08-0.47-3.32-0.57c-1.23-0.09-2.67,0.31-3.79-0.66c-2.22-1.93-11.5-3.8-7.07,2.47
	l1.75,9.68l8.44-3.06l9.95-1.71L316.19,295.59z"/>
<path style="fill:#E1338A;" d="M296.36,303.74c0,0-0.34-0.82,0.76-0.95c0.54-0.06,0.33-0.57,1.07-0.25
	c0.81,0.35,1.64-0.06,1.89-0.25c0.25-0.19,0.92-1.97,3.44-2.1c2.53-0.13,3.55-0.44,3.82-0.05c0.64,0.95,1.77,0.25,2.21-0.13
	c0.44-0.38,0.82-2.97,2.78-2.91c1.96,0.06,1.71-0.82,2.46-1.2c0.76-0.38,1.39-0.32,1.39-0.32l2.4,66.51l-19.9,8.65L296.36,303.74z"
	/>
<path d="M65.69,94.12c0,0,0.01,0,0.01,0l0,0H65.69z"/>
<path style="fill:#FFFFFF;" d="M348.85,150.56l6.28-104.74l-26.96-7.37l-22.15,6.07l-3.72,61.07l-0.94-27.62l-27.54-4.75l-6.98,2.66
	l4.22-40.53l-27.35-8.93l-22.41,5.7l-2.63,24.91l-0.29-3.29l-55.4-6.78l-21.73,9.82l0.81,9.22l-8.06-2.97l2.45-17.69l4.75,1.52
	l21.84-4.94l3.23-23.55L115.23,0l-0.61,0.12L92.77,4.3l-6.8,48.26c-1.06-4.73-3.37-9.33-6.96-13.82
	c-4.98-5.87-10.75-9.47-17.31-10.8l-40.15-7.88l-0.19,0.01L0,28.04l2.17,127.42l28.4,5.77l7.77-3.14l0.14,4.75l28.38,5.65l0.19-0.01
	l21.35-7.95l-0.36-24.74l38.53,14.04l21.67-4.38l0.51-3.4l3.72,42.39l27.73,3.61l21.46-9.88l-3.23-37.99l0.45,0.05l11.55-5.26
	l-2.62,24.8l27.35,8.74l20.1-4.9l1.65,46.76l54.33,9.5l20.7-8.36c0,0-0.09-0.47-0.28-4.46c-0.19-3.99-0.41-10.54-0.66-19.66
	l-26.06-4.55l-0.26-7.75l46.71,12.55l21.38-5.95c0,0,0.75-15,1.37-24.1L348.85,150.56z M2.49,28.24l18.76-6.82l0.18,10.84
	L2.49,28.24z M85.41,56.52l-4.5,31.95c-0.29,0.29-0.56,0.58-0.87,0.85c-4.07,3.58-8.84,5.31-14.33,4.8l-3.72,1.21
	c2.44-3.22,3.69-7.24,3.73-12.06l-0.42-17.11c-0.12-7.23-2.94-13.95-8.44-20.17l20.24-7.5C82.12,43.98,84.89,49.98,85.41,56.52z
	 M80.61,90.58l-1.66,11.8c-2.99-3.17-6.42-5.55-10.31-7.12C73.33,94.93,77.32,93.37,80.61,90.58z M28.96,55.73
	c1.55,0.4,2.81,0.73,3.78,0.98c0.97,0.25,1.65,0.49,2.05,0.71c1.19,0.68,1.89,2.53,2.1,5.57l0.24,22.64l0.04,0.57l-7.8,2.83
	L28.96,55.73z M37.07,87.54c-0.26,1.8-1.08,2.74-2.47,2.84c-0.13,0.01-0.45-0.03-0.96-0.12c-0.51-0.09-1.29-0.23-2.31-0.41
	L37.07,87.54z M29.91,110.69c3.34,0.53,5.22,1.1,5.64,1.7c1.32,0.8,2.08,2.52,2.26,5.17l0.49,31.76l-7.91-1.55L29.91,110.69z
	 M30.64,159.72l-0.17-10.79l7.72,1.56l0.24,6.27L30.64,159.72z M22.58,32.37L22.4,21.53l38.99,7.58c5.27,0.91,10.16,3.68,14.67,8.31
	l-20.05,7.48c-4.66-4.88-9.88-7.88-15.67-9.01L22.58,32.37z M47.68,103.37c0.62-0.17,1.37-0.38,2.26-0.44l0.11,1.61
	C49.03,103.92,48.29,103.59,47.68,103.37z M51.24,105.22l-0.17-2.4c3.36,0.27,5.09,1.17,6.6,2.1l-4.37,1.6
	C52.93,106.17,51.61,105.39,51.24,105.22z M56.96,109.39c-0.95-1.01-1.77-1.61-2.53-2.11l3.9-1.41c0.28,1.04,0.5,2.37,0.64,3.76
	l0.16,2.27C58.43,111.07,57.73,110.21,56.96,109.39z M60.18,113.36c-0.11-3.42-0.43-6.35-1.12-8.97c0,0-1.69-1.12-2.88-1.58
	c-0.96-0.37-2.06-0.71-2.7-0.79c2.59-1.07,4.96-2.63,7.1-4.68l5.28-2c5.11,1.65,9.37,4.47,12.87,8.49l-1,7.12l-15.24,5.69
	C62.2,115.88,61.42,114.79,60.18,113.36z M67.15,167.14l-0.18-10.84l19.1,3.63L67.15,167.14z M66.87,154.97l-0.38-24.73
	c-0.05-4.44-1.17-8.61-3.34-12.53l14.39-5.37L74.91,131l12.02,4.38l0.4,23.51L66.87,154.97z M130.65,97.77l1.44-10.26l12.25,4.32
	l0.23,2.68L130.65,97.77z M144.69,95.82l2.09,23.83l-19.82-7.26l1.93-13.72l1.46,0.47L144.69,95.82z M132.28,86.17l1.14-9.12
	l9.46-1.91l1.34,15.21L132.28,86.17z M142.18,67.24l0.59,6.68l-9.37,1.84l-21.07-8.02l20.93-3.91L142.18,67.24z M132.85,62.85
	l-20.52,3.76l3.99-28.68l19,6.84L132.85,62.85z M141.39,45.14l1.52-10.26l17.1,6.27L141.39,45.14z M162.1,40.58l-19-6.84l1.14-9.12
	l20.71-4.37L162.1,40.58z M115.56,1.26l48.82,17.86l-19.95,4.18l-30.39-11.21L115.56,1.26z M114.42,1.26l-1.52,10.45L95.24,5.25
	L114.42,1.26z M108.91,91.49l19,6.84l-2.09,14.06l-20.52,4.18L108.91,91.49z M106.44,117.71l19.76-4.18l20.69,7.4l0.13,1.49
	l-17.41,3.65L106.44,117.71z M126.96,148.48l1.52-10.45l17.86,6.46L126.96,148.48z M147.47,143.54l-18.81-6.84l1.14-9.5l17.33-3.5
	l1.22,13.88L147.47,143.54z M144.11,57.15l18.62-8.55l0.95,10.83L144.11,57.15z M164.05,48.23l52.05,6.46l-19.19,8.74L165,59.62
	L164.05,48.23z M171.27,84.13l21.09,2.47l1.52,17.48l-19.95,9.12L171.27,84.13z M180.2,186.58l-0.95-11.08l19.78,2.33L180.2,186.58z
	 M200.34,176.64l-21.27-2.47l-3.23-36.66l21.27,2.47L200.34,176.64z M210.6,133.39l-11.78,5.36l-0.95-11.12l13.17,1.64L210.6,133.39
	z M211.16,128.1l-13.48-1.81l-0.76-9.31l16.21-7.49L211.16,128.1z M213.27,108.09l-17.5,8.14l-19.95-2.47l19.38-8.93l18.17,2.27
	L213.27,108.09z M213.5,105.96l-18.29-2.27l-1.52-16.91l5.51,0.57l17.09-7.78L213.5,105.96z M216.46,77.98l-17.43,7.94l-0.97-11.1
	l18.5,2.22L216.46,77.98z M216.66,76.03l-18.79-2.54l-0.76-8.74l19.95-9.12l0.82,8.93L216.66,76.03z M244.85,28.13l23.55,7.79
	l-20.71,4.94l-3.99-1.33L244.85,28.13z M223.2,32.87l20.33-4.94l-1.14,11.21L223.2,32.87z M235.36,167.17l1.14-11.02l18.72,6.05
	l0,0.05L235.36,167.17z M264.62,83.7l-10.17-1.93l10.81-4.19L264.62,83.7z M252.36,81.39l2.81,79.48l-18.67-6.05l11.97-112.83
	l21.09-5.13l-4.17,39.57L252.36,81.39z M266,83.96l0.72-6.96l6.34-2.46l0.38,10.83L266,83.96z M274.77,85.57l-0.38-11.02l24.69,4.18
	l-19.38,7.79L274.77,85.57z M280.85,87.47l19.19-7.79l1.4,40.16l-3.26,53.5l5.17,1.39l0.29,8.28l-19.19,7.6L280.85,87.47z
	 M311.25,218.16l-0.38-10.64l18.62,3.42L311.25,218.16z M330.43,209.99l-19.57-3.61l-0.38-9.5l19.19-7.6L330.43,209.99z
	 M328.72,188.33l-19,7.6l-24.31-4.37l19.19-7.6L328.72,188.33z M328.62,39.83l24.18,6.53l-20.03,5.89l-4.82-1.42L328.62,39.83z
	 M326.63,50.52l-18.56-5.42l19.22-5.4L326.63,50.52z M333.8,53.31l19.84-5.91l-6.33,103.21l-19.83,5.72L333.8,53.31z M328.35,157.36
	l19.83-5.72l23.59,6.66l-19.64,5.74L328.35,157.36z M351.51,186.06l0.64-10.37l18.2,5.19L351.51,186.06z M371.39,180.02l-19.13-5.47
	l0.53-9.25l19.83-5.96L371.39,180.02z"/>
<path style="fill:#FFFFFF;" d="M335.81,262.98l-0.76-23.93l-67.24-11.78l-9.05,3.59l0.62-4.5l-51.67-18.62l-21.84,4.56l-3.09,21.93
	l-19.02-6.21l-22.41,5.7l-3.93,37.2l-10.02-56.46c-0.26-1.64-1.19-6.3-5.42-12.14c-1.1-1.52-2.69-3.18-4.84-4.96
	c-5.83-5.06-12.03-7.66-18.62-7.79l-42.17-1.52l-20.33,11.59l22.41,127.27l41.79,1.52c1.01,0,1.93-0.03,2.75-0.1
	c0.82-0.06,4-0.31,6.93-1.42c1.89-0.71,19.76-11.21,19.76-11.21c1.22-0.71,2.28-1.35,3.21-1.95l-5.03,47.62l27.35,8.93l22.6-5.7
	l2.2-21.17l39.34,14.53l22.17-4.72l3.42-23.74l-24.88-9.12l1.91-13.59l1.51,0.48l21.65-4.56c0,0,3.18-22.25,3.36-23.36l-21.52-8.28
	l2.59-17.75l4.75,1.52l12.81-2.9l0.18,7.61l19.76,3.42l3.61,103.72l28.11,5.13l21.08-8.82l-3.42-92.36L335.81,262.98z M39.05,199.65
	l17.48-10.07l1.9,10.83L39.05,199.65z M69.06,221.11c1.77,0.13,3.2,0.26,4.27,0.38c1.07,0.13,1.74,0.26,1.99,0.38
	c1.9,0.51,3.04,2.15,3.42,4.94l13.3,75.98l-7.79,4.37L69.06,221.11z M90.15,307.73c-1.67,0.18-2.91,0.13-4.18,0l6.27-3.61
	C92.49,306.28,91.79,307.48,90.15,307.73z M77.8,201.16l-18.05-0.76l-1.9-10.83l40.46,1.33c7.6,0.38,14.31,3.48,20.14,9.31
	l-19.38,10.83C93.12,204.71,86.03,201.42,77.8,201.16z M117.12,321.22c0.63-0.63,1.17-1.33,1.61-2.09c0.44-0.76,0.85-1.45,1.23-2.09
	c1.01,0,4.43-0.19,5.32-0.19L117.12,321.22z M133.05,312.07c-2.07,1.41-4.21,2.48-5.61,2.88c-2.66,0.76-6.08,0.76-7.09,0.76
	c0.63-1.64,0.95-3.35,0.95-5.13c0-1.77-0.13-3.54-0.38-5.32l-14.06-79.59c-0.76-4.68-3.04-9.24-6.84-13.68l19.38-10.83
	c3.67,4.05,5.95,8.55,6.84,13.49l10.67,60.93L133.05,312.07z M143.23,234.48l20.33-4.94l-1.14,11.21L143.23,234.48z M155.39,368.78
	l1.14-11.02l18.81,6.08L155.39,368.78z M168,339l10.58,3.91l-2.11,19.99l-19.71-6.38l11.73-112.91l13.41-3.26L168,339z
	 M182.09,239.04l-14.35,3.42l-3.99-1.33l1.14-11.4l17.69,5.85L182.09,239.04z M316.43,269.25l-0.38-9.69l17.1,3.04L316.43,269.25z
	 M334.48,261.46l-19.38-3.3l-0.38-0.07v-0.01l-0.38,0.19l-0.38-9.74l19.76-7.98L334.48,261.46z M315.1,269.63l-0.38,0.19
	l-0.38-10.07l0.38-0.19L315.1,269.63z M207.51,209.26l-1.52,10.45l-17.67-6.46L207.51,209.26z M220.05,356.48l1.52-10.45l17.86,6.46
	L220.05,356.48z M240.56,351.54l-18.81-6.84l1.14-9.5l20.71-4.18L240.56,351.54z M242.65,329.88l-19.95,4.18l-23.17-8.36l19.76-4.18
	L242.65,329.88z M218.91,320.39l-20.52,4.18l3.61-25.07l19,6.84L218.91,320.39z M223.82,305.91l1.36-10.41l18.14,6.39L223.82,305.91
	z M244.36,301.01l-19-6.84l1.14-9.12l20.71-4.18L244.36,301.01z M246.39,279.86l-19.93,3.91l-21.03-8.03l20.33-3.8L246.39,279.86z
	 M225.78,270.73l-20.36,3.88l3.99-28.68l19,6.84L225.78,270.73z M207.13,220.09l1.52-10.83l48.82,17.86l-19.95,4.18L207.13,220.09z
	 M234.74,253.09l1.26-10.2l10.98,4.03l0.08,3.53L234.74,253.09z M256.76,237.41l-7.76-1.4l8.41-3.26L256.76,237.41z M246.72,235.63
	l0.24,9.99l-10.76-3.88l1.14-9.12l20.71-4.37l-0.43,3.06L246.72,235.63z M257.83,237.6l0.73-5.29l9.06-3.51l0.38,10.64L257.83,237.6
	z M269.33,239.62l-0.38-10.83L332.2,240l-19,7.41L269.33,239.62z M318.59,362.1l-19.9,8.65l-2.34-67.01c0,0-0.13-0.34,0.06-0.61
	l-1.25-35.01l19.48,3.43l0.66-0.33l0.82,24.38c0.05,0,0.08,0,0.08,0L318.59,362.1z"/>
</svg>
