<?xml version="1.0" encoding="UTF-8"?>
<svg width="44px" height="44px" viewBox="0 0 44 44" version="1.1" xmlns="http://www.w3.org/2000/svg" xmlns:xlink="http://www.w3.org/1999/xlink">
    <!-- Generator: sketchtool 63.1 (101010) - https://sketch.com -->
    <title>451DBC52-2C73-4F3B-B63A-3156B7BDFBD6</title>
    <desc>Created with sketchtool.</desc>
    <g id="Page-1" stroke="none" stroke-width="1" fill="none" fill-rule="evenodd">
        <g id="GP_Desktop" transform="translate(-197.000000, -5037.000000)">
            <g id="messenger" transform="translate(197.000000, 5037.000000)">
                <path d="M22,1 C16.2010101,1 10.9510101,3.35050506 7.1507576,7.1507576 C3.35050506,10.9510101 1,16.2010101 1,22 C1,25.8284943 2.02416339,29.4178357 3.81417161,32.5085266 L1.35812555,42.6418744 L11.4914734,40.1858284 C14.5821643,41.9758366 18.1715057,43 22,43 C27.7989899,43 33.0489899,40.6494949 36.8492424,36.8492424 C40.6494949,33.0489899 43,27.7989899 43,22 C43,16.2010101 40.6494949,10.9510101 36.8492424,7.1507576 C33.0489899,3.35050506 27.7989899,1 22,1 Z" id="Combined-Shape" stroke="#FFFFFF" stroke-width="2"></path>
                <path d="M9.65026626,28 C9.45787041,28 9.26677453,27.9120153 9.13937727,27.7467108 C8.94048156,27.4867561 8.95608123,27.1174871 9.17577649,26.8761958 L18.9255663,16.2127203 C19.1647611,15.9474332 19.5690524,15.9274367 19.8316467,16.168728 L25.3318282,21.1851873 L34.0273407,16.0887419 C34.3068347,15.9261036 34.660427,15.996758 34.8606227,16.2540465 C35.0595184,16.5140012 35.0439188,16.8846033 34.8242235,17.1245615 L25.0744337,27.78937 C24.8326389,28.0506578 24.4309476,28.0719875 24.1683533,27.8320293 L18.6681718,22.8155699 L9.97265931,27.9120153 C9.87126149,27.9720049 9.76076388,28 9.65026626,28" id="Fill-1" fill="#FFFFFF"></path>
            </g>
        </g>
    </g>
</svg>