<?xml version="1.0" encoding="UTF-8"?>
<svg width="44px" height="44px" viewBox="0 0 44 44" version="1.1" xmlns="http://www.w3.org/2000/svg" xmlns:xlink="http://www.w3.org/1999/xlink">
    <!-- Generator: Sketch 63.1 (92452) - https://sketch.com -->
    <title>messenger</title>
    <desc>Created with Sketch.</desc>
    <g id="Page-1" stroke="none" stroke-width="1" fill="none" fill-rule="evenodd">
        <g id="GP_Desktop_Detail" transform="translate(-197.000000, -4653.000000)">
            <g id="messenger" transform="translate(197.000000, 4653.000000)">
                <path d="M22,0 C34.1502645,0 44,9.8497355 44,22 C44,34.1502645 34.1502645,44 22,44 C18.1334526,44 14.4998768,43.0025302 11.3425569,41.2508748 L1.82076576e-12,44 L2.74912523,32.6574431 C0.997469849,29.5001232 0,25.8665474 0,22 C0,9.8497355 9.8497355,0 22,0 Z" id="Combined-Shape" fill="#E1277C"></path>
                <path d="M9.65026626,28 C9.45787041,28 9.26677453,27.9120153 9.13937727,27.7467108 C8.94048156,27.4867561 8.95608123,27.1174871 9.17577649,26.8761958 L18.9255663,16.2127203 C19.1647611,15.9474332 19.5690524,15.9274367 19.8316467,16.168728 L25.3318282,21.1851873 L34.0273407,16.0887419 C34.3068347,15.9261036 34.660427,15.996758 34.8606227,16.2540465 C35.0595184,16.5140012 35.0439188,16.8846033 34.8242235,17.1245615 L25.0744337,27.78937 C24.8326389,28.0506578 24.4309476,28.0719875 24.1683533,27.8320293 L18.6681718,22.8155699 L9.97265931,27.9120153 C9.87126149,27.9720049 9.76076388,28 9.65026626,28" id="Fill-1" fill="#FFFFFF"></path>
            </g>
        </g>
    </g>
</svg>