<?xml version="1.0" encoding="UTF-8"?>
<svg width="53px" height="13px" viewBox="0 0 53 13" version="1.1" xmlns="http://www.w3.org/2000/svg" xmlns:xlink="http://www.w3.org/1999/xlink">
    <!-- Generator: Sketch 63.1 (92452) - https://sketch.com -->
    <title>noun_Hand drawn arrow_2405558</title>
    <desc>Created with Sketch.</desc>
    <g id="Page-1" stroke="none" stroke-width="1" fill="none" fill-rule="evenodd">
        <g id="GP_Desktop" transform="translate(-446.000000, -2607.000000)" fill="#000000" fill-rule="nonzero">
            <g id="Group-Copy-6" transform="translate(446.000000, 2603.000000)">
                <g id="noun_Hand-drawn-arrow_2405558" transform="translate(0.000000, 4.000000)">
                    <path d="M15.0747202,8.86538823 C10.5279173,8.86538823 5.98111439,8.82703115 1.43431149,8.75031698 C0.920671284,8.75031698 0.504283625,8.46409948 0.504283625,8.11103231 C0.504283625,7.75796513 0.920671284,7.47174763 1.43431149,7.47174763 L1.43431149,7.47174763 C17.3935897,7.74024719 33.5698743,7.5356761 49.5167521,6.86655813 C50.0303923,6.8453741 50.4717632,7.11441855 50.5025817,7.46748573 C50.5334001,7.82055291 50.1419957,8.12394346 49.6283555,8.14512749 C38.1890127,8.62246005 26.6070657,8.86538823 15.0747202,8.86538823 Z" id="Path"></path>
                    <path d="M40.7278846,12.8609182 C40.2630107,12.8603968 39.8656157,12.5407434 39.785366,12.1027826 C39.7051163,11.6648218 39.9651742,11.2349609 40.4021563,11.0832634 C43.4149093,10.0294754 46.3656991,8.82019778 49.2415287,7.46075707 C45.7122933,6.04811511 42.2837234,4.41560365 38.9778933,2.57373343 C38.6824009,2.40786672 38.5018712,2.10381923 38.5042836,1.77612272 C38.5067448,1.44842621 38.6917779,1.14686557 38.989707,0.985035769 C39.2876362,0.82320597 39.653199,0.825692811 39.9486914,0.991559522 C43.7729433,3.13995606 47.7661094,5.00059994 51.892063,6.5566577 C52.2432067,6.6866536 52.4821766,7.00133109 52.5028338,7.36092561 C52.5234911,7.72052013 52.3220048,8.05834493 51.9878655,8.22435452 C48.4555492,9.99050711 44.8049584,11.5312466 41.0599998,12.8364831 C40.9516576,12.8632401 40.8392307,12.8715119 40.7278846,12.8609182 L40.7278846,12.8609182 Z" id="Path"></path>
                </g>
            </g>
        </g>
    </g>
</svg>