<?xml version="1.0" encoding="UTF-8"?>
<svg width="23px" height="11px" viewBox="0 0 23 11" version="1.1" xmlns="http://www.w3.org/2000/svg" xmlns:xlink="http://www.w3.org/1999/xlink">
    <!-- Generator: Sketch 63.1 (92452) - https://sketch.com -->
    <title>noun_Undo_1931916</title>
    <desc>Created with Sketch.</desc>
    <g id="Page-1" stroke="none" stroke-width="1" fill="none" fill-rule="evenodd">
        <g id="GP_Desktop" transform="translate(-556.000000, -110.000000)" fill="#000000">
            <g id="noun_Undo_1931916" transform="translate(567.500000, 113.500000) scale(1, -1) rotate(-45.000000) translate(-567.500000, -113.500000) translate(559.000000, 105.000000)">
                <path d="M4.90986519,2.19493691 L7.17333424,3.07602733 C8.38051774,3.63672124 10.040395,4.83820817 11.0212316,5.79939772 L12.60566,7.4013803 C14.0391904,9.00336289 15.2463739,11.8068324 15.8499656,14.1297071 C15.9254146,14.5302028 16.0763125,15.1709958 16.0763125,15.5714915 C16.0763125,16.0520862 15.6990677,16.4525819 15.2463739,16.2122845 C14.79368,16.0520862 14.79368,15.5714915 14.7182311,15.0908967 C14.6427821,14.4501037 14.2655373,13.1685176 13.9637414,12.5277246 C13.4355986,11.0058411 12.6811089,9.40385853 11.6248234,8.28247072 C10.5685378,7.16108292 10.3421909,6.8406864 9.13500742,5.87949685 C8.4559667,5.39890208 7.85237496,4.99840643 7.17333424,4.51781166 C6.26794662,4.03721688 3.40088583,2.9959282 2.2691513,2.9959282 L3.62723273,4.51781166 C4.15537551,5.07850556 4.45717138,5.4790012 4.98531416,6.11979424 C5.73980385,7.08098379 6.26794662,7.64167769 6.94698734,8.60286724 C7.55057908,9.48395766 6.49429353,10.284949 5.89070178,9.48395766 C4.68351829,7.80187595 2.64639614,5.23870382 1.21286575,3.79691949 C0.835620905,3.47652298 0.00568225328,2.67553169 0.0811312216,2.03473865 C0.15658019,1.55414388 0.382927095,1.39394562 0.835620905,1.31384649 C1.21286575,1.31384649 1.59011059,1.0735491 1.96735543,0.993449974 L7.02243631,0.352656941 C8.00327289,0.192458683 8.83321155,0.352656941 9.73859917,0.432756071 C10.2667419,0.432756071 10.6439868,0.432756071 10.7948847,0.833251716 C11.3984765,2.19493691 8.90866051,1.87454039 7.70147702,1.95463952 C6.7960894,2.03473865 5.81525281,2.03473865 4.90986519,2.19493691 Z" id="Path"></path>
            </g>
        </g>
    </g>
</svg>