<?xml version="1.0" encoding="UTF-8"?>
<svg width="21px" height="21px" viewBox="0 0 21 21" version="1.1" xmlns="http://www.w3.org/2000/svg" xmlns:xlink="http://www.w3.org/1999/xlink">
    <!-- Generator: Sketch 63.1 (92452) - https://sketch.com -->
    <title>noun_Search_3145951</title>
    <desc>Created with Sketch.</desc>
    <g id="Page-1" stroke="none" stroke-width="1" fill="none" fill-rule="evenodd">
        <g id="GP_Desktop" transform="translate(-641.000000, -1347.000000)" fill="#000000" fill-rule="nonzero">
            <g id="Group-6" transform="translate(42.000000, 1346.000000)">
                <g id="noun_Search_3145951" transform="translate(599.000000, 1.000000)">
                    <g id="Group">
                        <path d="M8.75,17.5 C3.91750844,17.5 0,13.5824916 0,8.75 C0,3.91750844 3.91750844,0 8.75,0 C13.5824916,0 17.5,3.91750844 17.5,8.75 C17.5,13.5824916 13.5824916,17.5 8.75,17.5 Z M8.75,1.75 C4.88400675,1.75 1.75,4.88400675 1.75,8.75 C1.75,12.6159932 4.88400675,15.75 8.75,15.75 C12.6159932,15.75 15.75,12.6159932 15.75,8.75 C15.75,6.89348457 15.0125021,5.11300718 13.6997475,3.80025253 C12.3869928,2.48749788 10.6065154,1.75 8.75,1.75 Z" id="Shape"></path>
                        <path d="M20.125,21.0000146 C19.8924224,21.0013447 19.668879,20.9100382 19.50375,20.74625 L13.81625,15.05875 C13.5189453,14.7115848 13.5389343,14.1940801 13.8621322,13.8708822 C14.1853301,13.5476843 14.7028348,13.5276953 15.05,13.825 L20.7375,19.5125 C20.9826048,19.7624878 21.0551036,20.1345123 20.921803,20.4582424 C20.7885023,20.7819725 20.4750658,20.9950824 20.125,21.0000146 Z" id="Path"></path>
                        <path d="M13.125,9.625 C12.6417508,9.625 12.25,9.23324916 12.25,8.75 C12.25,6.81700338 10.6829966,5.25 8.75,5.25 C8.26675084,5.25 7.875,4.85824916 7.875,4.375 C7.875,3.89175084 8.26675084,3.5 8.75,3.5 C11.6494949,3.5 14,5.85050506 14,8.75 C14,9.23324916 13.6082492,9.625 13.125,9.625 Z" id="Path"></path>
                    </g>
                </g>
            </g>
        </g>
    </g>
</svg>