<?xml version="1.0" encoding="UTF-8"?>
<svg width="44px" height="44px" viewBox="0 0 44 44" version="1.1" xmlns="http://www.w3.org/2000/svg" xmlns:xlink="http://www.w3.org/1999/xlink">
    <!-- Generator: Sketch 63.1 (92452) - https://sketch.com -->
    <title>whatsapp</title>
    <desc>Created with Sketch.</desc>
    <g id="Page-1" stroke="none" stroke-width="1" fill="none" fill-rule="evenodd">
        <g id="GP_Desktop" transform="translate(-275.000000, -5037.000000)">
            <g id="whatsapp" transform="translate(275.000000, 5037.000000)">
                <path d="M22,1 C16.2010101,1 10.9510101,3.35050506 7.1507576,7.1507576 C3.35050506,10.9510101 1,16.2010101 1,22 C1,25.8284943 2.02416339,29.4178357 3.81417161,32.5085266 L1.35812555,42.6418744 L11.4914734,40.1858284 C14.5821643,41.9758366 18.1715057,43 22,43 C27.7989899,43 33.0489899,40.6494949 36.8492424,36.8492424 C40.6494949,33.0489899 43,27.7989899 43,22 C43,16.2010101 40.6494949,10.9510101 36.8492424,7.1507576 C33.0489899,3.35050506 27.7989899,1 22,1 Z" id="Combined-Shape" stroke="#FFFFFF" stroke-width="2"></path>
                <path d="M27.1333333,24.2 C25.6666667,25.6666667 25.6666667,27.1333333 24.2,27.1333333 C22.7333333,27.1333333 21.2666667,25.6666667 19.8,24.2 C18.3333333,22.7333333 16.8666667,21.2666667 16.8666667,19.8 C16.8666667,18.3333333 18.3333333,18.3333333 19.8,16.8666667 C21.2666667,15.4 16.8666667,11 15.4,11 C13.9333333,11 11,15.4 11,15.4 C11,18.3333333 14.014,24.2806667 16.8666667,27.1333333 C19.7178667,29.986 25.6666667,33 28.6,33 C28.6,33 33,30.0666667 33,28.6 C33,27.1333333 28.6,22.7333333 27.1333333,24.2" id="Shape" fill="#FFFFFF"></path>
            </g>
        </g>
    </g>
</svg>